<svg width="189" height="155" viewBox="0 0 189 155" fill="none" xmlns="http://www.w3.org/2000/svg">
<path d="M70.1686 119.448C70.7486 119.788 71.0386 120.378 71.0586 120.918L72.3486 120.968C72.3186 120.068 71.9286 119.088 70.7886 118.418C69.1786 117.458 67.2086 117.778 66.1686 119.508C65.1386 121.228 65.7886 123.138 67.3986 124.088C68.3986 124.678 69.4186 124.738 70.3586 124.448L71.6086 122.358L68.9886 120.798L68.3886 121.798L69.8586 122.668L69.4586 123.338C69.0886 123.408 68.5286 123.348 68.0186 123.048C67.0186 122.458 66.7486 121.258 67.3686 120.218C67.9886 119.188 69.1686 118.848 70.1586 119.448H70.1686Z" fill="white"/>
<path d="M74.7582 126.378C73.8382 125.998 73.6082 125.248 73.9482 124.428L75.3782 120.928L74.0982 120.408L72.6482 123.958C72.0582 125.408 72.4882 126.768 74.2982 127.508C76.0882 128.238 77.3482 127.588 77.9482 126.118L79.3982 122.578L78.1182 122.058L76.6882 125.558C76.3482 126.378 75.6682 126.758 74.7582 126.388V126.378Z" fill="white"/>
<path d="M82.128 123.318L78.168 128.888L79.618 129.258L80.278 128.288L83.048 128.988L83.168 130.158L84.608 130.528L83.788 123.738L82.138 123.318H82.128ZM80.918 127.238L82.668 124.668L82.968 127.758L80.918 127.238Z" fill="white"/>
<path d="M89.8577 124.738L86.8777 124.408L86.1777 130.748L87.5277 130.898L87.7777 128.628L88.7677 128.738L89.7677 131.148L91.3177 131.318L90.1577 128.748C90.8577 128.668 91.6377 128.148 91.7577 127.018C91.8877 125.838 91.1777 124.888 89.8477 124.738H89.8577ZM89.3377 127.628L87.9177 127.468L88.1077 125.718L89.5277 125.878C90.0677 125.938 90.4477 126.328 90.3877 126.858C90.3277 127.388 89.8777 127.688 89.3377 127.628Z" fill="white"/>
<path d="M94.9079 124.978L92.5879 131.418L94.0879 131.378L94.4679 130.268L97.3279 130.198L97.7579 131.288L99.2479 131.248L96.6279 124.928L94.9179 124.968L94.9079 124.978ZM94.7979 129.088L95.7979 126.138L96.9279 129.038L94.8079 129.088H94.7979Z" fill="white"/>
<path d="M102.158 130.848L101.448 126.618L105.168 130.338L106.468 130.118L105.398 123.828L104.058 124.058L104.748 128.128L101.128 124.548L99.748 124.778L100.818 131.068L102.158 130.848Z" fill="white"/>
<path d="M111.218 122.048L106.348 123.578L106.708 124.718L108.498 124.158L110.048 129.098L111.358 128.688L109.808 123.748L111.578 123.188L111.218 122.048Z" fill="white"/>
<path d="M115.548 125.828L114.938 124.478L117.758 123.198L117.278 122.138L114.458 123.418L113.878 122.158L116.768 120.848L116.278 119.788L112.158 121.658L114.798 127.468L118.918 125.598L118.428 124.528L115.548 125.828Z" fill="white"/>
<path d="M121.198 122.948L120.428 121.688L123.068 120.068L122.468 119.078L119.818 120.688L119.098 119.508L121.798 117.858L121.188 116.858L117.328 119.218L120.648 124.668L124.508 122.308L123.898 121.298L121.198 122.948Z" fill="white"/>
<path d="M170.538 50.8282H165.428C166.428 47.9182 166.368 45.1882 165.208 42.8682C163.918 40.2982 161.418 38.4882 157.968 37.6582C150.858 35.9382 147.088 31.3182 146.758 23.9282C146.598 20.3382 145.328 17.5282 143.078 15.7882C140.818 14.0382 137.758 13.5082 134.208 14.2582C127.148 15.7482 121.648 13.1982 118.298 6.8782C116.568 3.6082 114.168 1.5582 111.338 0.948201C108.538 0.338201 105.518 1.1882 102.618 3.4082C96.9077 7.7782 91.0077 7.8582 85.0577 3.6482C83.2977 2.4082 81.3377 1.5682 79.5277 1.2882C75.1377 0.608201 71.8177 2.6582 69.3677 7.5682C66.4077 13.4882 60.6177 16.3982 54.2477 15.1682C53.5477 15.0282 52.8277 14.9382 52.3477 14.8782L51.8277 14.8182C48.5277 14.7582 45.8077 15.7282 43.9377 17.6182C42.1877 19.3982 41.3177 21.8782 41.4177 24.7982C41.6577 31.6182 36.8677 37.6682 30.0477 39.1782C26.9977 39.8482 24.6377 41.5482 23.4077 43.9682C22.3677 45.9882 22.1777 48.3782 22.8077 50.8382H18.7077C8.75774 50.8382 0.677734 58.9782 0.677734 68.9682C0.677734 78.9582 8.75774 87.0982 18.7077 87.0982H20.7477C26.2577 92.4182 26.9777 96.6382 23.9577 104.208C22.7877 107.158 22.8077 110.128 24.0077 112.578C25.2077 115.018 27.5477 116.828 30.5777 117.688C39.0577 120.078 41.9477 123.608 42.4877 132.208C42.6877 135.348 43.9977 138.008 46.1777 139.698C48.3677 141.388 51.2777 141.998 54.3777 141.398C62.6377 139.808 67.0377 141.848 71.1977 149.208C72.9177 152.248 75.4577 154.198 78.3677 154.708C78.8477 154.788 79.3377 154.838 79.8177 154.838C82.0077 154.838 84.1877 153.988 86.0777 152.358C91.3177 147.858 99.2877 147.758 104.618 152.128C106.998 154.078 109.788 154.858 112.458 154.328C115.338 153.758 117.818 151.778 119.448 148.758C123.398 141.408 127.698 139.258 135.868 140.518C139.428 141.068 142.588 140.328 144.758 138.418C146.828 136.598 147.888 133.888 147.798 130.578C147.638 123.908 152.268 117.958 158.808 116.428C162.208 115.638 164.658 113.868 165.908 111.328C167.188 108.708 167.038 105.418 165.478 102.058C162.898 96.4782 163.468 91.3582 167.098 87.0982H170.538C180.488 87.0982 188.568 78.9582 188.568 68.9682C188.568 58.9782 180.488 50.8382 170.538 50.8382V50.8282ZM25.6277 45.0982C26.5377 43.3282 28.2477 42.1282 30.5877 41.6082C38.5877 39.8382 44.1977 32.7282 43.9177 24.7082C43.8377 22.4882 44.4677 20.6482 45.7177 19.3682C47.0777 17.9782 49.1577 17.2682 51.7177 17.3082L52.0377 17.3482C52.4777 17.4082 53.1277 17.4882 53.7777 17.6082C61.2977 19.0682 68.1277 15.6482 71.6177 8.6782C73.5777 4.7582 75.8977 3.2382 79.1577 3.7482C80.5677 3.9682 82.1977 4.6682 83.6277 5.6782C90.4777 10.5182 97.5777 10.4182 104.158 5.3782C106.458 3.6182 108.758 2.9282 110.828 3.3782C112.908 3.8382 114.738 5.4482 116.108 8.0382C119.978 15.3382 126.588 18.4182 134.738 16.6982C137.538 16.1082 139.898 16.4682 141.558 17.7582C143.208 19.0382 144.138 21.1982 144.268 24.0282C144.648 32.5382 149.188 38.0882 157.388 40.0782C160.098 40.7382 162.028 42.0882 162.978 43.9782C163.928 45.8782 163.848 48.2382 162.758 50.8182H147.868C137.998 31.4082 117.848 18.0782 94.6277 18.0782C71.4077 18.0782 51.2577 31.4082 41.3877 50.8182H25.3977C24.7277 48.7282 24.7977 46.7182 25.6377 45.0882L25.6277 45.0982ZM145.048 50.8282H44.1877C53.8377 32.8482 72.8177 20.5882 94.6177 20.5882C116.418 20.5882 135.398 32.8482 145.048 50.8282ZM163.218 103.098C164.468 105.798 164.628 108.258 163.668 110.218C162.768 112.068 160.898 113.368 158.248 113.978C150.558 115.768 145.108 122.768 145.298 130.628C145.358 133.168 144.598 135.208 143.108 136.528C141.508 137.938 139.068 138.478 136.248 138.038C127.028 136.608 121.698 139.278 117.238 147.558C115.968 149.908 114.098 151.438 111.968 151.858C110.008 152.248 108.008 151.668 106.188 150.178C99.9277 145.048 90.5777 145.158 84.4377 150.438C82.6877 151.948 80.7277 152.558 78.7877 152.228C76.6377 151.848 74.7077 150.338 73.3677 147.958C69.6177 141.328 65.3777 138.378 59.0677 138.378C57.4777 138.378 55.7677 138.568 53.8877 138.928C51.5077 139.388 49.3077 138.958 47.6977 137.708C46.0977 136.468 45.1277 134.448 44.9777 132.038C44.3677 122.338 40.7777 117.958 31.2577 115.268C28.8777 114.598 27.1477 113.278 26.2477 111.458C25.3477 109.628 25.3577 107.438 26.2777 105.118C29.3377 97.4082 28.8777 92.4282 24.1877 87.0882H35.6477C40.1277 115.608 64.8677 137.488 94.6177 137.488C124.368 137.488 149.108 115.608 153.588 87.0882H163.968C160.828 91.7782 160.528 97.3082 163.208 103.098H163.218ZM38.1877 87.0882H151.058C146.598 114.218 122.998 134.988 94.6277 134.988C66.2577 134.988 42.6477 114.218 38.1977 87.0882H38.1877ZM170.538 84.2382H18.6977C10.3177 84.2382 3.49773 77.3782 3.49773 68.9582C3.49773 60.5382 10.3177 53.6782 18.6977 53.6782H170.538C178.918 53.6782 185.738 60.5382 185.738 68.9582C185.738 77.3782 178.918 84.2382 170.538 84.2382Z" fill="white"/>
<path d="M52.2173 59.7482C51.2373 58.7982 50.0273 58.1282 45.5373 58.1282C44.2673 58.1282 43.2873 58.1582 42.3373 58.1882C41.4173 58.2182 40.5273 58.2482 39.4673 58.2482C38.0973 58.2482 34.4673 58.1582 33.7673 58.1582H33.7573L33.3373 59.2582L35.6573 59.4682C36.4473 59.5382 36.5673 59.8682 36.4773 60.3882C36.3173 61.1282 35.9273 62.7182 34.3973 67.7482C32.9273 72.7582 32.3973 74.3482 31.7373 75.9982C31.5273 76.5782 31.2173 76.8682 30.1773 76.9482L28.6173 77.0782L28.2773 78.1882C28.9873 78.1882 31.4473 78.0982 34.5273 78.0982C37.4273 78.0982 39.8873 78.1882 41.5473 78.1882L41.9473 77.0782L39.5373 76.8882C38.6273 76.7982 38.3773 76.6182 38.5073 76.0082C38.6673 75.2982 39.1473 73.2482 40.4273 68.6782C41.7473 63.9582 42.7473 60.8482 43.1173 59.9982C43.3473 59.5182 43.7373 59.3582 44.4073 59.3582C45.6073 59.3582 46.1173 59.7882 46.4873 60.3382C46.7873 60.8382 46.9673 61.6282 46.9673 62.6982C46.9673 65.0882 45.9373 67.5382 44.6173 68.6482C43.9073 69.2882 43.3273 69.5282 42.6973 69.5282C42.2773 69.5282 41.9073 69.4282 41.5373 69.3382L41.1373 70.3782C41.7473 70.6182 42.8473 70.7782 44.0073 70.7782C45.8373 70.7782 48.4373 70.4382 50.2573 69.2382C52.2373 67.9582 53.4273 65.8382 53.4273 63.4782C53.4273 62.0682 53.1573 60.6582 52.2073 59.7382L52.2173 59.7482Z" fill="white"/>
<path d="M66.7974 64.5282C65.0274 64.5282 63.4974 65.3582 61.7574 69.0382H61.5974C61.9674 67.6882 62.3574 65.5682 62.4474 64.5282C59.9674 65.1382 57.3274 65.2682 54.8174 65.3582H54.8274L54.3074 66.4782C54.8874 66.4782 55.5574 66.5782 56.0774 66.6082C56.4974 66.6382 56.6174 66.7682 56.5574 67.2482C56.3774 69.1082 54.4674 75.3982 53.3574 78.3482C54.8274 78.3182 56.6874 78.1882 59.3474 78.1682C59.9874 75.7382 60.5674 74.2382 61.0874 72.8882C61.9174 70.6782 63.0874 68.5582 63.9574 68.5582C64.4374 68.5582 64.6274 68.9582 64.8074 69.4382C65.0174 69.9982 65.3574 70.3582 66.2074 70.3582C67.8874 70.3582 69.1374 68.8782 69.1374 67.0382C69.1374 65.8382 68.3774 64.5182 66.7874 64.5182L66.7974 64.5282Z" fill="white"/>
<path d="M79.5968 64.5282H79.5868L79.5568 64.5182C77.3868 64.5182 75.2268 64.9782 73.4268 66.0882C71.0168 67.6282 69.4668 70.2882 69.4668 73.1982C69.4668 77.5282 72.7368 78.5382 76.5168 78.5382C79.0168 78.5382 81.2168 77.9782 82.7168 77.1282C85.2468 75.6382 86.8068 73.0282 86.8068 70.1082C86.8068 65.8082 83.6668 64.5282 79.6068 64.5282H79.5968ZM78.4268 76.2982C77.7868 77.1482 77.1068 77.4682 76.4468 77.4682C75.5668 77.4682 75.0468 76.8982 75.0468 75.3882C75.0468 73.1282 76.3668 68.8282 77.7668 66.9882C78.5268 65.9482 79.2068 65.6382 79.8768 65.6382H79.8868C80.9868 65.6382 81.2268 66.7082 81.2268 67.6882C81.2268 70.0382 79.9268 74.3582 78.4268 76.2982Z" fill="white"/>
<path d="M117.429 73.0482C116.399 75.0082 114.869 76.2082 114.049 76.2082C113.809 76.2082 113.629 75.9182 113.809 75.4382C113.989 74.9282 115.729 70.5682 116.529 68.4482C116.869 67.4982 117.139 66.1182 116.469 65.3182C116.069 64.8582 115.379 64.5182 114.089 64.5182C110.719 64.5182 107.919 66.7682 105.939 69.4282C106.189 68.6882 106.339 68.2582 106.459 67.6182C106.829 66.0782 106.539 64.5182 104.139 64.5182C100.419 64.5182 97.6686 66.9482 95.9286 69.3982C96.2686 68.1582 96.8386 65.8682 97.1486 64.5182C95.0586 64.8582 90.8086 65.1682 89.2786 65.2582L88.8586 66.2682L90.7786 66.3982C91.3586 66.4282 91.4486 66.5082 91.1986 67.4382C90.6786 69.4282 89.0886 74.4982 87.5586 78.3482C89.1886 78.2882 91.2286 78.1382 93.5486 78.0782C94.2286 75.7982 94.8086 74.2082 95.6886 72.5882C97.1486 69.3682 99.5386 66.8582 100.779 66.8582C101.009 66.8582 101.219 67.0482 101.089 67.6582C100.849 68.8782 98.8086 75.2282 97.5186 78.3282C98.9786 78.2382 101.269 78.0882 103.409 78.0882C104.259 75.4282 104.869 74.0782 105.449 72.9382C106.699 70.2582 109.229 66.8382 110.759 66.8382C111.199 66.8382 111.339 67.1782 111.069 67.9482C110.699 68.8882 109.359 71.8582 108.619 73.7682C107.639 76.4282 107.219 78.5482 110.759 78.5482C113.839 78.5482 116.619 76.9082 118.179 73.8482H118.169L117.429 73.0482Z" fill="white"/>
<path d="M125.137 76.3382C124.717 76.3382 124.787 76.0582 124.867 75.6282C125.347 73.5182 127.397 67.4182 128.587 64.6582L128.457 64.5282C126.197 64.8682 122.657 65.1782 119.877 65.2682L119.477 66.3882C120.027 66.3882 121.257 66.4682 121.557 66.4682C122.047 66.4682 122.027 66.8382 121.897 67.2382C121.357 69.1582 120.127 72.4182 119.487 74.4682C118.507 77.4182 119.327 78.5482 122.107 78.5482C125.457 78.5482 127.537 76.9282 129.187 74.0082L128.447 73.0882C127.497 75.0782 125.827 76.3282 125.117 76.3282L125.137 76.3382Z" fill="white"/>
<path d="M125.878 63.2182C127.438 63.2182 128.888 62.2082 129.018 60.2982C129.108 58.5482 128.128 57.6682 126.568 57.6682H126.558C125.548 57.6682 123.598 58.4082 123.498 60.6682C123.398 62.2882 124.588 63.2182 125.878 63.2182Z" fill="white"/>
<path d="M142.388 65.8183C142.018 65.3883 140.578 64.5683 138.358 64.5683C136.698 64.5683 135.218 64.8383 133.898 65.7883C132.568 66.7683 131.858 68.0483 131.858 69.8283C131.858 71.4483 132.838 72.4583 133.838 73.0183C135.248 73.7583 137.078 74.6583 137.868 75.1083C138.578 75.5383 138.628 75.7783 138.628 76.1783C138.628 76.8183 137.838 77.4583 136.308 77.4583C133.918 77.4583 132.088 75.9783 132.068 73.5583C132.038 72.9083 132.068 71.9683 132.098 71.6483L131.248 71.7383C130.638 74.1283 129.928 76.4483 129.668 77.1883C131.068 77.8983 133.448 78.5383 135.708 78.5383C137.848 78.5383 140.008 78.1683 141.598 76.7883C142.548 75.9883 143.208 74.6983 143.208 73.2583C143.208 71.8183 142.528 71.0283 141.288 70.3083C139.888 69.5383 137.878 68.5883 137.088 68.1583C136.538 67.8483 136.198 67.5483 136.198 66.9583C136.198 66.3083 136.748 65.6383 138.148 65.6383C140.308 65.6383 141.998 67.3583 141.478 70.1483L142.358 70.0583C142.748 68.6583 143.398 66.5183 144.248 64.6883L143.328 64.4783L142.408 65.7983L142.388 65.8183Z" fill="white"/>
<path d="M144.229 64.7082H144.249L144.239 64.6882C144.239 64.6882 144.239 64.7082 144.229 64.7082Z" fill="white"/>
<path d="M155.467 64.5382C153.567 64.5382 151.537 64.9682 149.847 66.0082C146.647 67.9682 145.457 70.9982 145.457 73.5482C145.457 77.3482 147.867 78.5382 151.317 78.5382C155.947 78.5382 158.817 76.2682 160.217 74.4282L159.927 72.6382H159.347C158.027 75.4582 156.107 76.8082 153.917 76.8082C152.047 76.8082 151.387 75.6082 151.387 73.9182C151.387 73.4382 151.487 72.7282 151.567 72.2982C152.887 72.2082 156.367 71.7582 158.007 71.2282C159.407 70.7582 160.937 70.0282 160.937 68.3082C160.937 66.0482 159.037 64.5382 155.477 64.5382H155.467ZM154.387 70.4882C153.877 70.7282 152.807 71.0282 151.797 71.1582C152.927 66.2782 154.757 65.6382 155.147 65.6382H155.217C155.857 65.6382 156.097 66.2182 156.097 66.9882C156.097 68.3682 155.517 69.9382 154.387 70.4882Z" fill="white"/>
<path d="M15.6687 66.8281L14.0087 63.0781L12.4587 66.8781L10.3887 68.2081L12.5387 69.4781L14.0087 73.3681L15.5887 69.5681L17.6387 68.2081L15.6687 66.8281Z" fill="white"/>
<path d="M20.6073 61.4082L19.6973 63.5982L18.5273 64.3682L19.7573 65.0982L20.6073 67.3182L21.4973 65.1382L22.6873 64.3682L21.5573 63.5782L20.6073 61.4082Z" fill="white"/>
<path d="M18.8487 70.5881L18.3287 71.8681L17.6387 72.3081L18.3587 72.7381L18.8487 74.0481L19.3887 72.7681L20.0687 72.3081L19.4187 71.8581L18.8487 70.5881Z" fill="white"/>
<path d="M175.218 62.0981L173.648 65.8881L171.598 67.2281L173.558 68.6081L175.218 72.3781L176.778 68.5681L178.838 67.2281L176.688 65.9681L175.218 62.0981Z" fill="white"/>
<path d="M168.627 68.1282L167.727 70.3182L166.547 71.0882L167.677 71.8882L168.627 74.0482L169.527 71.8582L170.707 71.0882L169.477 70.3582L168.627 68.1282Z" fill="white"/>
<path d="M170.878 62.7082L170.378 61.4082L169.858 62.6782L169.158 63.1282L169.828 63.5982L170.378 64.8682L170.898 63.5882L171.598 63.1282L170.878 62.7082Z" fill="white"/>
<path d="M101.048 27.9383C98.7985 27.2083 96.1485 28.0583 94.6185 29.9483C93.0885 28.0583 90.4385 27.2083 88.1985 27.9283C86.1585 28.5883 84.9885 30.3283 84.9985 32.7183C84.9685 35.2983 86.4985 39.5483 93.9685 45.0983C94.1685 45.2483 94.3985 45.3183 94.6185 45.3183C94.8385 45.3183 95.0785 45.2483 95.2785 45.0983C102.728 39.5583 104.268 35.3083 104.248 32.7183C104.248 30.3283 103.088 28.5883 101.058 27.9283L101.048 27.9383ZM94.6185 42.8283C89.9985 39.2483 87.3585 35.8183 87.1885 33.1583C87.1185 32.0383 87.4885 31.0583 88.2885 30.2583C89.0885 29.7383 90.5285 29.8483 91.4685 30.2583C92.2685 30.5983 93.2885 31.3283 93.5385 32.8483C93.6185 33.3883 94.0685 33.7683 94.6285 33.7683C95.1885 33.7683 95.6385 33.3883 95.7185 32.8483C95.8785 31.7383 96.5485 30.8383 97.6085 30.3283C98.7085 29.7983 100.088 29.7683 100.978 30.2683C101.778 31.0683 102.138 32.0483 102.068 33.1683C101.898 35.8383 99.2585 39.2583 94.6385 42.8383L94.6185 42.8283Z" fill="white"/>
<path d="M77.6171 35.3783C76.2371 34.9283 74.6171 35.3983 73.5971 36.4883C72.5871 35.3983 70.9671 34.9283 69.5871 35.3783C68.2571 35.8083 67.4671 36.9882 67.4671 38.5282C67.4471 40.1682 68.4071 42.8483 73.0671 46.3083C73.2271 46.4283 73.4171 46.4883 73.5971 46.4883C73.7771 46.4883 73.9671 46.4283 74.1371 46.3083C78.7871 42.8483 79.7471 40.1682 79.7371 38.5282C79.7371 36.9782 78.9571 35.8083 77.6271 35.3783H77.6171ZM73.5971 44.4483C70.8971 42.3283 69.3571 40.3182 69.2571 38.7782C69.2171 38.1582 69.4071 37.6282 69.8471 37.1882C70.2371 36.9582 70.9971 36.9683 71.5771 37.2183C72.2171 37.4883 72.6071 37.9682 72.7171 38.6382C72.7871 39.0782 73.1471 39.3882 73.6071 39.3882C74.0671 39.3882 74.4271 39.0782 74.4971 38.6382C74.6071 37.8582 75.1271 37.4582 75.5371 37.2582C76.1471 36.9682 76.8871 36.9483 77.3771 37.1983C77.8071 37.6483 77.9971 38.1683 77.9571 38.7883C77.8571 40.3383 76.3171 42.3382 73.6171 44.4582L73.5971 44.4483Z" fill="white"/>
<path d="M119.648 35.3783C118.268 34.9283 116.648 35.3983 115.628 36.4883C114.618 35.3983 112.998 34.9283 111.618 35.3783C110.288 35.8083 109.498 36.9882 109.498 38.5282C109.478 40.1682 110.438 42.8483 115.098 46.3083C115.258 46.4283 115.448 46.4883 115.628 46.4883C115.808 46.4883 115.998 46.4283 116.168 46.3083C120.818 42.8483 121.778 40.1682 121.768 38.5282C121.768 36.9782 120.988 35.8083 119.658 35.3783H119.648ZM115.628 44.4483C112.928 42.3283 111.388 40.3182 111.288 38.7782C111.248 38.1582 111.438 37.6382 111.878 37.1882C112.268 36.9582 113.028 36.9683 113.608 37.2183C114.248 37.4883 114.638 37.9682 114.748 38.6382C114.818 39.0782 115.178 39.3882 115.638 39.3882C116.098 39.3882 116.458 39.0782 116.528 38.6382C116.638 37.8582 117.158 37.4582 117.568 37.2582C118.178 36.9682 118.918 36.9483 119.408 37.1983C119.838 37.6483 120.028 38.1683 119.988 38.7883C119.888 40.3383 118.348 42.3382 115.648 44.4582L115.628 44.4483Z" fill="white"/>
<path d="M57.2169 97.8081H54.1169V91.8481H52.5469V99.1881H57.2169V97.8081Z" fill="white"/>
<path d="M60.728 99.3182C62.488 99.3182 63.548 98.0382 63.548 96.5282C63.548 95.0182 62.488 93.7482 60.728 93.7482C58.968 93.7482 57.918 95.0282 57.918 96.5282C57.918 98.0282 58.978 99.3182 60.728 99.3182ZM60.728 94.9882C61.598 94.9882 62.088 95.6982 62.088 96.5282C62.088 97.3582 61.588 98.0782 60.728 98.0782C59.868 98.0782 59.378 97.3682 59.378 96.5282C59.378 95.6882 59.858 94.9882 60.728 94.9882Z" fill="white"/>
<path d="M67.5677 99.1882L69.6977 93.8682H68.1977L66.8077 97.5682L65.4177 93.8682H63.9277L66.0577 99.1882H67.5677Z" fill="white"/>
<path d="M72.9377 99.3182C73.7677 99.3182 74.5877 99.0782 75.1277 98.5782L74.5077 97.6782C74.1677 98.0082 73.5877 98.2082 73.0877 98.2082C72.1877 98.2082 71.6477 97.6482 71.5577 96.9782H75.5077V96.6682C75.5077 94.9282 74.4277 93.7382 72.8477 93.7382C71.2677 93.7382 70.0977 94.9782 70.0977 96.5182C70.0977 98.2282 71.3177 99.3082 72.9377 99.3082V99.3182ZM72.8477 94.8482C73.7677 94.8482 74.1277 95.5182 74.1577 96.0282H71.5377C71.6077 95.4982 71.9777 94.8482 72.8477 94.8482Z" fill="white"/>
<path d="M80.2482 93.0882C80.7082 93.0882 81.0882 92.7182 81.0882 92.2482C81.0882 91.7782 80.7182 91.4082 80.2482 91.4082C79.7782 91.4082 79.4082 91.7782 79.4082 92.2482C79.4082 92.7182 79.7882 93.0882 80.2482 93.0882Z" fill="white"/>
<path d="M80.9586 93.8682H79.5586V99.1782H80.9586V93.8682Z" fill="white"/>
<path d="M82.7274 97.8682C82.7274 98.8182 83.2574 99.3182 84.2374 99.3182C84.8174 99.3182 85.1974 99.1682 85.4074 98.9782L85.1074 97.9182C85.0274 97.9982 84.8274 98.0682 84.6274 98.0682C84.3174 98.0682 84.1474 97.8182 84.1474 97.4882V95.0882H85.2274V93.8682H84.1474V92.4182H82.7374V93.8682H81.8574V95.0882H82.7374V97.8582L82.7274 97.8682Z" fill="white"/>
<path d="M91.6674 99.3182C93.4274 99.3182 94.4874 98.0382 94.4874 96.5282C94.4874 95.0182 93.4274 93.7482 91.6674 93.7482C89.9074 93.7482 88.8574 95.0282 88.8574 96.5282C88.8574 98.0282 89.9174 99.3182 91.6674 99.3182ZM91.6674 94.9882C92.5374 94.9882 93.0274 95.6982 93.0274 96.5282C93.0274 97.3582 92.5274 98.0782 91.6674 98.0782C90.8074 98.0782 90.3174 97.3682 90.3174 96.5282C90.3174 95.6882 90.7974 94.9882 91.6674 94.9882Z" fill="white"/>
<path d="M97.0287 95.6782C97.2587 95.3382 97.8787 95.0882 98.3387 95.0882C98.4887 95.0882 98.6287 95.0982 98.7287 95.1182V93.7582C98.0687 93.7582 97.4087 94.1282 97.0387 94.6082V93.8782H95.6387V99.1882H97.0387V95.6782H97.0287Z" fill="white"/>
<path d="M105.338 97.9482C104.328 97.9482 103.518 97.4982 103.008 96.9582L102.148 98.1482C102.838 98.8382 103.858 99.3182 105.258 99.3182C107.238 99.3182 108.198 98.3082 108.198 96.9682C108.198 95.3382 106.658 94.9782 105.448 94.6982C104.598 94.4982 103.988 94.3482 103.988 93.8482C103.988 93.4082 104.358 93.0982 105.068 93.0982C105.778 93.0982 106.578 93.3482 107.168 93.8982L108.038 92.7582C107.308 92.0882 106.348 91.7382 105.178 91.7382C103.448 91.7382 102.398 92.7282 102.398 93.9482C102.398 95.5882 103.938 95.9182 105.138 96.1882C105.988 96.3882 106.618 96.5782 106.618 97.1282C106.618 97.5482 106.198 97.9582 105.338 97.9582V97.9482Z" fill="white"/>
<path d="M111.828 99.3182C112.658 99.3182 113.478 99.0782 114.018 98.5782L113.398 97.6782C113.058 98.0082 112.478 98.2082 111.978 98.2082C111.078 98.2082 110.538 97.6482 110.448 96.9782H114.398V96.6682C114.398 94.9282 113.318 93.7382 111.738 93.7382C110.158 93.7382 108.988 94.9782 108.988 96.5182C108.988 98.2282 110.208 99.3082 111.828 99.3082V99.3182ZM111.738 94.8482C112.658 94.8482 113.018 95.5182 113.048 96.0282H110.428C110.498 95.4982 110.868 94.8482 111.738 94.8482Z" fill="white"/>
<path d="M116.927 95.6082C117.157 95.2882 117.587 94.9782 118.137 94.9782C118.727 94.9782 119.117 95.2282 119.117 95.9682V99.1782H120.517V95.4282C120.517 94.3982 119.957 93.7382 118.787 93.7382C117.917 93.7382 117.267 94.1582 116.927 94.5682V93.8782H115.527V99.1882H116.927V95.6082Z" fill="white"/>
<path d="M124.018 99.3181C124.658 99.3181 125.238 99.0281 125.658 98.5181V99.1881H127.068V91.8481H125.658V94.5581C125.238 94.0181 124.648 93.7481 124.018 93.7481C122.668 93.7481 121.668 94.8081 121.668 96.5381C121.668 98.2681 122.678 99.3181 124.018 99.3181ZM124.448 94.9881C124.918 94.9881 125.418 95.2381 125.658 95.5881V97.4681C125.418 97.8181 124.918 98.0681 124.448 98.0681C123.658 98.0681 123.108 97.4381 123.108 96.5281C123.108 95.6181 123.658 94.9781 124.448 94.9781V94.9881Z" fill="white"/>
<path d="M132.888 93.8682H131.488V99.1782H132.888V93.8682Z" fill="white"/>
<path d="M132.178 93.0882C132.638 93.0882 133.018 92.7182 133.018 92.2482C133.018 91.7782 132.648 91.4082 132.178 91.4082C131.708 91.4082 131.338 91.7782 131.338 92.2482C131.338 92.7182 131.718 93.0882 132.178 93.0882Z" fill="white"/>
<path d="M134.657 97.8682C134.657 98.8182 135.187 99.3182 136.167 99.3182C136.747 99.3182 137.127 99.1682 137.337 98.9782L137.037 97.9182C136.957 97.9982 136.757 98.0682 136.557 98.0682C136.247 98.0682 136.077 97.8182 136.077 97.4882V95.0882H137.157V93.8682H136.077V92.4182H134.667V93.8682H133.787V95.0882H134.667V97.8582L134.657 97.8682Z" fill="white"/>
<path d="M71.2981 105.718C71.2981 104.738 70.5781 103.848 69.1881 103.848H65.3281V111.188H69.3081C70.7081 111.188 71.4381 110.308 71.4381 109.208C71.4381 108.288 70.8081 107.528 70.0281 107.408C70.7181 107.268 71.2981 106.648 71.2981 105.728V105.718ZM66.8881 105.178H68.8481C69.3781 105.178 69.7081 105.528 69.7081 105.978C69.7081 106.428 69.3781 106.788 68.8481 106.788H66.8881V105.168V105.178ZM68.8981 109.858H66.8881V108.128H68.8981C69.5181 108.128 69.8481 108.528 69.8481 108.988C69.8481 109.518 69.4981 109.858 68.8981 109.858Z" fill="white"/>
<path d="M72.6472 106.578L73.1772 107.518C73.6272 107.098 74.1572 106.888 74.7272 106.888C75.4272 106.888 75.8972 107.238 75.8972 107.778V108.518C75.5472 108.088 74.9172 107.868 74.2172 107.868C73.3672 107.868 72.3672 108.318 72.3672 109.558C72.3672 110.798 73.3672 111.318 74.2172 111.318C74.9072 111.318 75.5372 111.068 75.8972 110.638V111.188H77.2972V107.758C77.2972 106.228 76.1872 105.748 74.9772 105.748C74.1372 105.748 73.3072 106.008 72.6572 106.588L72.6472 106.578ZM75.8972 109.908C75.6672 110.218 75.2272 110.368 74.7772 110.368C74.2272 110.368 73.7772 110.078 73.7772 109.588C73.7772 109.098 74.2272 108.788 74.7772 108.788C75.2272 108.788 75.6672 108.938 75.8972 109.248V109.908Z" fill="white"/>
<path d="M81.2575 111.318C82.3475 111.318 83.0075 110.848 83.3575 110.348L82.4475 109.498C82.1975 109.848 81.8075 110.068 81.3275 110.068C80.4775 110.068 79.8875 109.438 79.8875 108.518C79.8875 107.598 80.4775 106.978 81.3275 106.978C81.8075 106.978 82.1975 107.188 82.4475 107.548L83.3575 106.698C83.0075 106.198 82.3475 105.728 81.2575 105.728C79.6175 105.728 78.4375 106.888 78.4375 108.508C78.4375 110.128 79.6175 111.298 81.2575 111.298V111.318Z" fill="white"/>
<path d="M84.377 103.848V111.188H85.777V109.818L86.417 109.138L87.827 111.188H89.577L87.407 108.278L89.507 105.868H87.787L85.777 108.238V103.848H84.377Z" fill="white"/>
<path d="M98.5279 105.188V103.848H93.3379V111.188H98.5279V109.828H94.8979V108.128H98.4479V106.788H94.8979V105.188H98.5279Z" fill="white"/>
<path d="M101.218 107.608C101.428 107.308 101.838 106.978 102.318 106.978C102.888 106.978 103.108 107.328 103.108 107.828V111.188H104.518V107.598C104.718 107.308 105.128 106.978 105.618 106.978C106.188 106.978 106.408 107.328 106.408 107.828V111.188H107.818V107.348C107.818 106.258 107.238 105.738 106.258 105.738C105.448 105.738 104.738 106.218 104.428 106.708C104.228 106.108 103.738 105.738 102.958 105.738C102.178 105.738 101.438 106.248 101.218 106.568V105.878H99.8184V111.188H101.218V107.608Z" fill="white"/>
<path d="M112.337 105.738C111.687 105.738 111.107 106.028 110.697 106.538V105.868H109.297V113.208H110.697V110.498C111.127 111.048 111.707 111.308 112.337 111.308C113.697 111.308 114.687 110.288 114.687 108.518C114.687 106.748 113.697 105.738 112.337 105.738ZM111.897 110.068C111.447 110.068 110.927 109.798 110.697 109.468V107.588C110.927 107.248 111.447 106.988 111.897 106.988C112.697 106.988 113.237 107.618 113.237 108.528C113.237 109.438 112.697 110.078 111.897 110.078V110.068Z" fill="white"/>
<path d="M116.128 109.868C116.128 110.818 116.658 111.318 117.638 111.318C118.218 111.318 118.598 111.168 118.808 110.978L118.508 109.918C118.428 109.998 118.228 110.068 118.028 110.068C117.718 110.068 117.548 109.818 117.548 109.488V107.088H118.628V105.868H117.548V104.418H116.138V105.868H115.258V107.088H116.138V109.858L116.128 109.868Z" fill="white"/>
<path d="M121.798 109.568L120.408 105.868H118.908L121.068 111.258L120.868 111.708C120.738 111.998 120.498 112.098 120.128 112.098C119.998 112.098 119.808 112.068 119.688 112.008L119.478 113.258C119.658 113.298 120.008 113.338 120.168 113.338C121.078 113.318 121.788 113.048 122.178 112.048L124.678 105.868H123.168L121.778 109.568H121.798Z" fill="white"/>
</svg>
