<?xml version="1.0" encoding="UTF-8"?><svg id="Layer_2" xmlns="http://www.w3.org/2000/svg" viewBox="0 0 246.5 35.68"><defs><style>.cls-1{fill:#b8208a;}</style></defs><g id="Layer_1-2"><path class="cls-1" d="m17.9,22.34c-.05-.1-.1-.2-.13-.3l-5.48-13.34,3.46-.74-8.4-1.16,8.27,21.94c.16.32.34.59.55.77.12.1.24.18.37.22.06.02.12.03.18.04.44.05.96-.25,1.43-.83.21-.26.4-.56.57-.9l10.46-18.47-11.03,13.32-.25-.53Z"/><path class="cls-1" d="m33.65,1.66l.05-.21s.01-.04.02-.06v-.07c.02-.29-.07-.54-.27-.74-.42-.42-1.27-.63-2.29-.57L9.93.18l17.05,2.89-.34.49c-.06.09-.12.18-.19.26l-8.82,11.41-2.37-2.62,3.2,7.84L33.32,2.34c.12-.18.23-.38.3-.58.01-.03.02-.07.02-.1Z"/><path class="cls-1" d="m.06,1.88c.04.15.09.31.16.47l.03.09s.03.07.04.11c.12.25.24.48.39.7l10.76,18.29L5.43,5.33l.62.05c.1,0,.19,0,.29.02l14.26,1.92-.07.36-.97,3.01,5.19-6.69L1.61.2C.87.15.36.33.13.75l-.04.08c-.04.12-.07.21-.08.3,0,.05,0,.1-.01.15,0,.13,0,.26.03.4.01.09.02.14.03.19Z"/><polygon class="cls-1" points="45.18 0 49.64 0 58.51 22.21 66.76 0 71.14 0 60.91 27.56 56.2 27.56 45.18 0"/><path class="cls-1" d="m77.51,0v4.11h-4.11V0h4.11Zm-4.11,8.09h4.11v19.47h-4.11V8.09Z"/><path class="cls-1" d="m86.94,27.56c-.87,0-1.68-.17-2.44-.49-.77-.33-1.43-.78-1.99-1.35-.56-.57-1.01-1.24-1.34-2.01-.33-.76-.5-1.57-.5-2.44V3.92l4.11-1.03v7.62h2.91l1.03,4.11h-3.94v6.64c0,.61.21,1.13.63,1.56.42.42.93.63,1.52.63h2.94l1.03,4.11h-3.97Z"/><path class="cls-1" d="m112.12,27.56h-4.11v-9.74c0-1.71-.6-3.18-1.81-4.39-1.2-1.2-2.67-1.81-4.39-1.81-.83,0-1.63.16-2.39.47-.76.32-1.43.76-2,1.33-1.2,1.2-1.81,2.67-1.81,4.39s.6,3.14,1.8,4.34c.58.6,1.24,1.06,2.01,1.36.76.3,1.55.45,2.38.45.71,0,1.37-.1,1.97-.3l1.47,3.67c-1.11.49-2.39.74-3.85.74s-2.75-.27-3.95-.8c-1.21-.53-2.25-1.27-3.14-2.2-.88-.94-1.57-2.03-2.07-3.28-.49-1.25-.74-2.58-.74-3.99s.25-2.78.74-4.03c.49-1.25,1.18-2.34,2.07-3.28.88-.93,1.93-1.67,3.14-2.2,1.2-.53,2.52-.8,3.95-.8,1.28,0,2.41.2,3.38.58.99.39,1.86.89,2.62,1.48l.6.48v-2.01h4.11v19.51Z"/><path class="cls-1" d="m133.71,27.56h-4.11v-1.97s-.61.52-.61.52c-.7.6-1.49,1.08-2.37,1.46-.87.37-1.84.56-2.93.56-1.27,0-2.42-.24-3.44-.71-1.03-.48-1.91-1.13-2.65-1.95-.74-.82-1.31-1.79-1.71-2.91-.4-1.11-.6-2.31-.6-3.59v-10.87s4.11,0,4.11,0v10.87c0,1.37.51,2.57,1.52,3.58.99.99,2.19,1.48,3.58,1.48s2.63-.49,3.62-1.48c.99-.98,1.48-2.18,1.48-3.58v-10.87s4.11,0,4.11,0v19.47Z"/><path class="cls-1" d="m142.93,27.56c-.87,0-1.68-.17-2.44-.49-.77-.33-1.43-.78-1.99-1.35-.56-.57-1.01-1.24-1.34-2.01-.33-.76-.5-1.57-.5-2.44V3.92l4.11-1.03v7.62h2.91l1.03,4.11h-3.94v6.64c0,.61.21,1.13.63,1.56.42.42.93.63,1.52.63h2.94l1.03,4.11h-3.97Z"/><path class="cls-1" d="m162.83,8.23c1.03.48,1.91,1.13,2.65,1.97.74.84,1.3,1.82,1.71,2.93.4,1.12.6,2.31.6,3.59v10.83h-4.11v-10.83c0-.69-.13-1.35-.39-1.97-.26-.61-.64-1.16-1.13-1.65-.99-.98-2.18-1.48-3.58-1.48s-2.63.5-3.62,1.48c-.99.99-1.48,2.2-1.48,3.62v10.83h-4.11V0h4.11v10.16s.62-.55.62-.55c.7-.62,1.49-1.13,2.37-1.52.86-.38,1.84-.57,2.92-.57,1.27,0,2.42.24,3.44.71Z"/><path class="cls-1" d="m184.67,8.32c1.25.53,2.34,1.27,3.28,2.2.94.94,1.67,2.03,2.2,3.28.53,1.24.8,2.58.8,4.02s-.27,2.73-.8,3.98c-.53,1.25-1.27,2.34-2.2,3.28-.94.94-2.03,1.67-3.28,2.2-1.24.53-2.58.8-4.02.8s-2.77-.27-4.02-.8c-1.25-.53-2.34-1.27-3.28-2.2-.94-.94-1.67-2.03-2.21-3.28-.53-1.25-.8-2.57-.8-3.98s.27-2.77.8-4.02c.53-1.25,1.27-2.34,2.21-3.28.94-.94,2.03-1.67,3.28-2.2,1.25-.53,2.58-.8,4.02-.8s2.77.27,4.02.8Zm-8.4,5.12c-1.2,1.2-1.81,2.67-1.81,4.39s.6,3.14,1.8,4.34c.58.6,1.24,1.06,2.01,1.36.76.3,1.55.45,2.38.45s1.62-.15,2.36-.45c.75-.3,1.42-.76,2.02-1.35,1.2-1.2,1.81-2.66,1.81-4.35s-.61-3.19-1.81-4.39c-1.25-1.19-2.72-1.8-4.38-1.8s-3.18.6-4.39,1.81Z"/><path class="cls-1" d="m203.85,7.49v4.11c-1.56.08-2.9.69-4.02,1.8-1.19,1.25-1.8,2.72-1.8,4.38v9.78h-4.11v-9.78s0-9.74,0-9.74h4.11v1.99s.61-.5.61-.5c.73-.6,1.55-1.09,2.48-1.48.81-.34,1.72-.53,2.74-.57Z"/><path class="cls-1" d="m210.93,0v4.11h-4.11V0h4.11Zm-4.11,8.09h4.11v19.47h-4.11V8.09Z"/><path class="cls-1" d="m220.35,27.56c-.87,0-1.68-.17-2.44-.49-.77-.33-1.43-.78-1.99-1.35-.56-.57-1.01-1.24-1.34-2.01-.33-.76-.5-1.57-.5-2.44V3.92l4.11-1.03v7.62h2.91l1.03,4.11h-3.94v6.64c0,.61.21,1.13.63,1.56.42.42.93.63,1.52.63h2.94l1.03,4.11h-3.97Z"/><path class="cls-1" d="m237.36,27.77l-1.25,2.75c-.73,1.58-1.81,2.83-3.26,3.76-1.45.93-3.05,1.4-4.81,1.4h-1.67l1.03-4.11h.88c.85,0,1.65-.24,2.38-.7.73-.47,1.28-1.1,1.63-1.9l.47-1.04-9.21-19.84h4.52l6.95,14.98,6.95-14.98h4.52l-9.14,19.69Z"/></g></svg>